<svg xmlns="http://www.w3.org/2000/svg" width="24" height="24" viewBox="0 0 24 24">
  <path fill="#0088cc" d="M12 2C6.48 2 2 6.48 2 12s4.48 10 10 10 10-4.48 10-10S17.52 2 12 2zm3.61 14.016a1.007 1.007 0 0 1-.552.533 1.001 1.001 0 0 1-.777.037c-.709-.226-2.917-1.254-3.946-1.698-1.745-.756-3.903-2.27-2.247-3.927l2.135-2.141c.591-.592.917-1.223-.129-2.033l-2.247-1.654c-.52-.384-1.277-.101-1.361.553-.207 1.606.246 3.563 1.538 6.368 1.501 3.25 5.346 7.153 9.326 7.845.507.089 1.156-.336.958-.883z"/>
</svg> 